<svg width="198" height="19" viewBox="0 0 198 19" fill="none" xmlns="http://www.w3.org/2000/svg">
<path d="M0.523438 18V0.539062H12.2891V3.58594H4.20312V7.6875H11.668V10.6758H4.20312V14.9531H12.3125V18H0.523438ZM18.3711 0.539062L22.5781 13.8047H22.7539L26.9727 0.539062H31.0625L25.0391 18H20.293L14.2578 0.539062H18.3711ZM33.1484 18V0.539062H44.9141V3.58594H36.8281V7.6875H44.293V10.6758H36.8281V14.9531H44.9375V18H33.1484ZM47.8438 18V0.539062H54.7109C56.6953 0.539062 58.2344 1.05859 59.3281 2.09766C60.4297 3.13672 60.9805 4.51953 60.9805 6.24609C60.9805 7.44141 60.7148 8.46484 60.1836 9.31641C59.6523 10.1602 58.8906 10.793 57.8984 11.2148L61.6016 18H57.5234L54.2188 11.8125H51.5234V18H47.8438ZM51.5234 8.84766H54.0195C56.1289 8.84766 57.1836 7.98047 57.1836 6.24609C57.1836 5.37891 56.9219 4.71484 56.3984 4.25391C55.875 3.79297 55.0781 3.5625 54.0078 3.5625H51.5234V8.84766ZM62.5742 0.539062H66.7227L70.6953 8.0625H70.8711L74.8555 0.539062H78.9922L72.6172 11.8359V18H68.9492V11.8359L62.5742 0.539062ZM87.1953 18H81.0078V0.539062H87.2422C89 0.539062 90.5117 0.890625 91.7773 1.59375C93.043 2.28906 94.0156 3.28906 94.6953 4.59375C95.3828 5.89062 95.7266 7.44531 95.7266 9.25781C95.7266 11.0781 95.3828 12.6406 94.6953 13.9453C94.0156 15.25 93.0391 16.2539 91.7656 16.957C90.4922 17.6523 88.9688 18 87.1953 18ZM84.6875 14.8359H87.0312C88.6797 14.8359 89.9297 14.3945 90.7812 13.5117C91.6328 12.6289 92.0586 11.2109 92.0586 9.25781C92.0586 7.32031 91.6328 5.91016 90.7812 5.02734C89.9297 4.14453 88.6797 3.70312 87.0312 3.70312H84.6875V14.8359ZM101.469 18H97.5078L103.543 0.539062H108.289L114.312 18H110.363L109.062 14.0156H102.758L101.469 18ZM103.695 11.1328H108.125L105.98 4.52344H105.84L103.695 11.1328ZM115.355 0.539062H119.504L123.477 8.0625H123.652L127.637 0.539062H131.773L125.398 11.8359V18H121.73V11.8359L115.355 0.539062ZM141.605 18.2344C140.051 18.2344 138.66 17.8828 137.434 17.1797C136.207 16.4766 135.238 15.457 134.527 14.1211C133.824 12.7852 133.473 11.1719 133.473 9.28125C133.473 7.375 133.828 5.75391 134.539 4.41797C135.258 3.08203 136.23 2.0625 137.457 1.35938C138.691 0.65625 140.074 0.304688 141.605 0.304688C142.957 0.304688 144.172 0.554688 145.25 1.05469C146.336 1.55469 147.223 2.27734 147.91 3.22266C148.598 4.16797 149.02 5.3125 149.176 6.65625H145.449C145.309 5.69531 144.898 4.94141 144.219 4.39453C143.539 3.83984 142.695 3.5625 141.688 3.5625C140.344 3.5625 139.262 4.0625 138.441 5.0625C137.621 6.05469 137.211 7.46094 137.211 9.28125C137.211 11.1406 137.621 12.5547 138.441 13.5234C139.27 14.4922 140.348 14.9766 141.676 14.9766C142.652 14.9766 143.48 14.7188 144.16 14.2031C144.848 13.6875 145.277 12.9648 145.449 12.0352H149.176C149.043 13.1055 148.66 14.1133 148.027 15.0586C147.402 16.0039 146.547 16.7695 145.461 17.3555C144.383 17.9414 143.098 18.2344 141.605 18.2344ZM154.836 18H150.875L156.91 0.539062H161.656L167.68 18H163.73L162.43 14.0156H156.125L154.836 18ZM157.062 11.1328H161.492L159.348 4.52344H159.207L157.062 11.1328ZM169.766 18V0.539062H176.633C178.617 0.539062 180.156 1.05859 181.25 2.09766C182.352 3.13672 182.902 4.51953 182.902 6.24609C182.902 7.44141 182.637 8.46484 182.105 9.31641C181.574 10.1602 180.812 10.793 179.82 11.2148L183.523 18H179.445L176.141 11.8125H173.445V18H169.766ZM173.445 8.84766H175.941C178.051 8.84766 179.105 7.98047 179.105 6.24609C179.105 5.37891 178.844 4.71484 178.32 4.25391C177.797 3.79297 177 3.5625 175.93 3.5625H173.445V8.84766ZM185.539 18V0.539062H197.305V3.58594H189.219V7.6875H196.684V10.6758H189.219V14.9531H197.328V18H185.539Z" fill="#8E34FB"/>
</svg>
