<svg width="154" height="188" viewBox="0 0 154 188" fill="none" xmlns="http://www.w3.org/2000/svg">
<path d="M0.00012207 0.357544C0.00012207 0.357544 11.0001 34.2695 35.0001 34.2695C48.6029 34.2695 85.0138 34.2695 114.009 34.2695C136.1 34.2695 154 52.1781 154 74.2695V147.358C154 169.449 136.092 187.358 114 187.358H40.0001C17.9087 187.358 0.00012207 169.449 0.00012207 147.358V0.357544Z" fill="#8E34FB"/>
<circle cx="76.0001" cy="112" r="14" fill="white"/>
<path d="M71.0002 77.4612C79.5342 86.1424 85.0002 97.1424 85.0002 113.461" stroke="white" stroke-width="10"/>
<path d="M67.0001 72.3543C81.9168 78.9989 92.4654 90.4159 95.4485 111.899" stroke="#8E34FB" stroke-width="10"/>
<circle cx="121" cy="111.676" r="14" fill="white"/>
<path d="M116 77.1367C124.534 85.8179 130 96.8179 130 113.137" stroke="white" stroke-width="10"/>
<path d="M112 72.0298C126.917 78.6744 137.465 90.0914 140.448 111.574" stroke="#8E34FB" stroke-width="10"/>
</svg>
