<svg version="1.1" xmlns="http://www.w3.org/2000/svg" xmlns:xlink="http://www.w3.org/1999/xlink" width="512.000000pt" height="512.000000pt" viewBox="0,0,256,256"><g fill="#ffffff" fill-rule="nonzero" stroke="none" stroke-width="1" stroke-linecap="butt" stroke-linejoin="miter" stroke-miterlimit="10" stroke-dasharray="" stroke-dashoffset="0" font-family="none" font-weight="none" font-size="none" text-anchor="none" style="mix-blend-mode: normal"><g transform="translate(0.025,-0.03798) scale(0.5,0.5)"><g transform="translate(0,512) scale(0.1,-0.1)"><path d="M3258,4427c-38,-17 -516,-510 -524,-541c-3,-13 -3,-34 1,-46c4,-11 188,-206 411,-433l404,-412l-1751,-5l-1751,-5l-24,-28l-24,-28v-365c0,-230 4,-372 10,-384c25,-47 -43,-45 1797,-50l1742,-5l-404,-412c-236,-240 -407,-422 -411,-437c-3,-13 -3,-34 1,-46c10,-30 491,-522 526,-538c23,-10 35,-10 58,0c37,16 1789,1815 1797,1846c4,12 4,32 0,45c-5,19 -1750,1823 -1779,1838c-28,15 -54,17 -79,6z"></path></g></g></g></svg>