<svg width="154" height="187" viewBox="0 0 154 187" fill="none" xmlns="http://www.w3.org/2000/svg">
<path d="M0 0C0 0 11 33.9119 35 33.9119C48.6028 33.9119 85.0136 33.9119 114.008 33.9119C136.1 33.9119 154 51.8205 154 73.9119V147C154 169.091 136.091 187 114 187H40C17.9086 187 0 169.091 0 147V0Z" fill="white"/>
<circle cx="75.9999" cy="111.642" r="14" fill="#8E34FB"/>
<path d="M70.9999 77.1036C79.5339 85.7848 85 96.7849 84.9999 113.104" stroke="#8E34FB" stroke-width="10"/>
<path d="M66.9999 71.9968C81.9165 78.6414 92.4651 90.0584 95.4483 111.541" stroke="white" stroke-width="10"/>
<circle cx="122" cy="111.642" r="14" fill="#8E34FB"/>
<path d="M117 77.1036C125.534 85.7848 131 96.7849 131 113.104" stroke="#8E34FB" stroke-width="10"/>
<path d="M113 71.9968C127.917 78.6414 138.465 90.0584 141.448 111.541" stroke="white" stroke-width="10"/>
</svg>
