<svg width="186" height="261" viewBox="0 0 186 261" fill="none" xmlns="http://www.w3.org/2000/svg">
<path d="M32.0001 73.3575C32.0001 73.3575 43.0001 107.269 67.0001 107.269C80.6029 107.269 117.014 107.269 146.009 107.269C168.1 107.269 186 125.178 186 147.269V220.358C186 242.449 168.092 260.358 146 260.358H72.0001C49.9087 260.358 32.0001 242.449 32.0001 220.358V73.3575Z" fill="white"/>
<rect x="10.6553" y="21.3108" width="15.0689" height="45.2068" transform="rotate(-45 10.6553 21.3108)" fill="white"/>
<rect x="21.3107" y="53.2768" width="15.0689" height="45.2068" transform="rotate(-135 21.3107 53.2768)" fill="white"/>
<circle cx="108" cy="185" r="14" fill="#8E34FB"/>
<path d="M103 150.461C111.534 159.142 117 170.142 117 186.461" stroke="#8E34FB" stroke-width="10"/>
<path d="M99 145.354C113.917 151.999 124.465 163.416 127.448 184.899" stroke="white" stroke-width="10"/>
<circle cx="154" cy="185" r="14" fill="#8E34FB"/>
<path d="M149 150.461C157.534 159.142 163 170.142 163 186.461" stroke="#8E34FB" stroke-width="10"/>
<path d="M145 145.354C159.917 151.999 170.465 163.416 173.448 184.899" stroke="white" stroke-width="10"/>
</svg>
